<?xml version="1.0" ?><svg id="infographic-ico" viewBox="0 0 32 32" xmlns="http://www.w3.org/2000/svg"><title/><path d="M28,25a3,3,0,0,0-2.82,2h-5L20,26.24A11,11,0,0,0,27,17H16.41L9,24.45a11,11,0,0,0,9.12,2.35l.42,1.47a1,1,0,0,0,1,.73h5.72A3,3,0,1,0,28,25Z"/><path d="M15,5.05A10.89,10.89,0,0,0,10.49,6.5L10,3.81A1,1,0,0,0,9,3H6.82a3,3,0,1,0,0,2H8.17L8.7,7.79A11,11,0,0,0,7.55,23L15,15.59Z"/><path d="M26.71,13.51A10.93,10.93,0,0,0,23,7.58L23.75,5h1.43a3,3,0,1,0,0-2H23a1,1,0,0,0-1,.73l-.76,2.64a10.7,10.7,0,0,0-2.79-1.08A9.42,9.42,0,0,0,17,5.06V15h9.94A9.42,9.42,0,0,0,26.71,13.51Z"/></svg>