<?xml version="1.0" ?><!DOCTYPE svg  PUBLIC '-//W3C//DTD SVG 1.1//EN'  'http://www.w3.org/Graphics/SVG/1.1/DTD/svg11.dtd'><svg enable-background="new 0 0 128 128" height="128px" version="1.1" viewBox="0 0 128 128" width="128px" xml:space="preserve" xmlns="http://www.w3.org/2000/svg" xmlns:xlink="http://www.w3.org/1999/xlink"><g id="OBJECT"><g><path d="M99.21,90.597H83.605V74.992c0-1.104-0.896-2-2-2s-2,0.896-2,2v15.604H64c-1.104,0-2,0.896-2,2s0.896,2,2,2h15.606v15.604    c0,1.104,0.896,2,2,2s2-0.896,2-2V94.597H99.21c1.104,0,2-0.896,2-2S100.314,90.597,99.21,90.597z"/><path d="M117.032,35.491c0-0.625-0.286-1.182-0.734-1.549L84.278,0.615c-0.007-0.007-0.017-0.011-0.023-0.018    c-0.117-0.119-0.252-0.217-0.395-0.303c-0.043-0.026-0.086-0.049-0.131-0.071c-0.14-0.07-0.285-0.128-0.441-0.165    c-0.014-0.003-0.026-0.01-0.041-0.013c-0.134-0.028-0.272-0.044-0.415-0.044H12.988c-1.104,0-2,0.896-2,2v124c0,1.104,0.896,2,2,2    h102.024c1.104,0,2-0.896,2-2V35.685C117.02,35.62,117.032,35.557,117.032,35.491z M84.836,6.969l25.481,26.521H84.836V6.969z     M14.988,124.001v-120h65.848v31.49c0,1.104,0.896,2,2,2h30.177v86.51H14.988z"/></g></g></svg>