<?xml version="1.0" ?><svg id="upl-ad-l-ico" viewBox="0 0 64 64" xmlns="http://www.w3.org/2000/svg" fill="white" stroke-width="0.2"><defs>
</defs><title/>

<path  d="M40,54.5H16A2.5023,2.5023,0,0,1,13.5,52V12A2.5026,2.5026,0,0,1,16,9.5H40A2.5026,2.5026,0,0,1,42.5,12V52A2.5023,2.5023,0,0,1,40,54.5Zm-24-44A1.5017,1.5017,0,0,0,14.5,12V52A1.5017,1.5017,0,0,0,16,53.5H40A1.5017,1.5017,0,0,0,41.5,52V12A1.5017,1.5017,0,0,0,40,10.5Z"/>
<path d="M32,12.5H24a.5.5,0,0,1,0-1h8a.5.5,0,0,1,0,1Z"/>
<path d="M30,52.5H26a.5.5,0,0,1,0-1h4a.5.5,0,0,1,0,1Z"/>
<rect height="26" rx="2" ry="2" width="34" x="20" y="16"/>
<path d="M52,42.5H22A2.5023,2.5023,0,0,1,19.5,40V18A2.5026,2.5026,0,0,1,22,15.5H52A2.5026,2.5026,0,0,1,54.5,18V40A2.5023,2.5023,0,0,1,52,42.5Zm-30-26A1.5017,1.5017,0,0,0,20.5,18V40A1.5017,1.5017,0,0,0,22,41.5H52A1.5017,1.5017,0,0,0,53.5,40V18A1.5017,1.5017,0,0,0,52,16.5Z"/>


<path  fill="black" stroke="none" d="M40,24.5H32a.5.5,0,0,1,0-1H40a.5.5,0,0,1,0,1Z"/>
<path  fill="black" stroke="none" d="M44,28.5H32a.5.5,0,0,1,0-1H44a.5.5,0,0,1,0,1Z"/>
<path  fill="black" stroke="none" d="M42,32.5H32a.5.5,0,0,1,0-1H42a.5.5,0,0,1,0,1Z"/>
<path  fill="black" stroke="none" d="M48,36.5H32a.5.5,0,0,1,0-1H48a.5.5,0,0,1,0,1Z"/>

<path d="M52,20.5H21a.5.5,0,0,1,0-1H53a.5.5,0,0,1,0,1Z"/>
<rect stroke-width="0.5" height="8" rx="0" ry="0" width="8" x="22" y="22"/>

<circle fill="orange" cx="45" cy="45" r="7"/>
<path stroke="black" stroke-width="0.2" d="M45,52.5A7.5,7.5,0,1,1,52.5,45,7.5083,7.5083,0,0,1,45,52.5Zm0-14A6.5,6.5,0,1,0,51.5,45,6.5075,6.5075,0,0,0,45,38.5Z"/>
<path fill="white" stroke="black" class="cls-2" d="M43.6,48.3a.4983.4983,0,0,1-.3535-.1465l-2.8-2.8a.5.5,0,0,1,.707-.707L43.6,47.0928l5.2471-5.2461a.5.5,0,0,1,.707.707l-5.6006,5.6A.4981.4981,0,0,1,43.6,48.3Z"/>
</svg>