<?xml version="1.0" ?><svg id="website-l-ico" viewBox="0 0 64 64" xmlns="http://www.w3.org/2000/svg" fill="white" stroke-width="0.2"><defs></defs><title/>
<path d="M52.167,44.5H11.833A2.4235,2.4235,0,0,1,9.5,42V18a2.4239,2.4239,0,0,1,2.333-2.5H52.167A2.4239,2.4239,0,0,1,54.5,18V42A2.4235,2.4235,0,0,1,52.167,44.5Zm-40.334-28A1.4254,1.4254,0,0,0,10.5,18V42a1.4254,1.4254,0,0,0,1.333,1.5H52.167A1.4254,1.4254,0,0,0,53.5,42V18a1.4254,1.4254,0,0,0-1.333-1.5Z"/>
<path d="M36,50.9H28a.5.5,0,0,1-.4854-.6211l1.6-6.4A.5.5,0,0,1,29.6,43.5H34.4a.5.5,0,0,1,.4853.3789l1.6,6.4A.5.5,0,0,1,36,50.9Zm-7.3594-1h6.7188l-1.35-5.4H29.99Z"/>
<path d="M39.2,52.5H24.8a1.3,1.3,0,0,1,0-2.6H39.2a1.3,1.3,0,0,1,0,2.6ZM24.8,50.9a.3.3,0,1,0,0,.6H39.2a.3.3,0,1,0,0-.6Z"/>
<rect fill="white" height="30" rx="2" ry="2" width="18" x="34" y="22"/>
<path  d="M50,52.5H36A2.5023,2.5023,0,0,1,33.5,50V24A2.5026,2.5026,0,0,1,36,21.5H50A2.5026,2.5026,0,0,1,52.5,24V50A2.5023,2.5023,0,0,1,50,52.5Zm-14-30A1.5017,1.5017,0,0,0,34.5,24V50A1.5017,1.5017,0,0,0,36,51.5H50A1.5017,1.5017,0,0,0,51.5,50V24A1.5017,1.5017,0,0,0,50,22.5Z"/>

<path stroke-width="0.5" d="M46,24.5H40a.5.5,0,0,1,0-1h6a.5.5,0,0,1,0,1Z"/>
<path stroke-width="0.5" d="M44,50.5H42a.5.5,0,0,1,0-1h2a.5.5,0,0,1,0,1Z"/>
<path d="M32,40.5H10a.5.5,0,0,1,0-1H32a.5.5,0,0,1,0,1Z"/>

<path d="M32,36.5H16A2.5023,2.5023,0,0,1,13.5,34V22A2.5026,2.5026,0,0,1,16,19.5H46a.5.5,0,0,1,0,1H16A1.5017,1.5017,0,0,0,14.5,22V34A1.5017,1.5017,0,0,0,16,35.5H32a.5.5,0,0,1,0,1Z"/>

<circle fill="orange" cx="45" cy="45" r="7"/>
<path stroke="black" stroke-width="0.2" d="M45,52.5A7.5,7.5,0,1,1,52.5,45,7.5083,7.5083,0,0,1,45,52.5Zm0-14A6.5,6.5,0,1,0,51.5,45,6.5075,6.5075,0,0,0,45,38.5Z"/>
<path fill="white" stroke="black" class="cls-2" d="M43.6,48.3a.4983.4983,0,0,1-.3535-.1465l-2.8-2.8a.5.5,0,0,1,.707-.707L43.6,47.0928l5.2471-5.2461a.5.5,0,0,1,.707.707l-5.6006,5.6A.4981.4981,0,0,1,43.6,48.3Z"/>

<path stroke="black" stroke-width="0.2" d="M32,24.5H17a.5.5,0,0,1,0-1h15a.5.5,0,0,1,0,1Z"/>
<path stroke="black" stroke-width="0.2" d="M30,28.5H19a.5.5,0,0,1,0-1h11a.5.5,0,0,1,0,1Z"/>
<path stroke="black" stroke-width="0.2" d="M30,32.5H19a.5.5,0,0,1,0-1h11a.5.5,0,0,1,0,1Z"/>

<path  fill="black" stroke="none" d="M30,32.5H37a.5.5,0,0,1,0-1h12a.5.5,0,0,1,0,1Z"/>
<path  fill="black" stroke="none" d="M30,36.5H38a.5.5,0,0,1,0-1h10a.5.5,0,0,1,0,1Z"/>
<path  fill="black" stroke="none" d="M30,40.5H38a.5.5,0,0,1,0-1h1a.5.5,0,0,1,0,1Z"/>
</svg>